<?xml version="1.0" encoding="UTF-8"?>
<!DOCTYPE svg PUBLIC "-//W3C//DTD SVG 1.1//EN" "http://www.w3.org/Graphics/SVG/1.1/DTD/svg11.dtd">
<!-- Creator: CorelDRAW -->
<svg xmlns="http://www.w3.org/2000/svg" xml:space="preserve" width="297mm" height="210mm" style="shape-rendering:geometricPrecision; text-rendering:geometricPrecision; image-rendering:optimizeQuality; fill-rule:evenodd; clip-rule:evenodd"
viewBox="0 0 297 210">
 <defs>
  <style type="text/css">
   <![CDATA[
    .str1 {stroke:#838281;stroke-width:0.0762}
    .str0 {stroke:#B08A57;stroke-width:2.8222}
    .fil4 {fill:none;fill-rule:nonzero}
    .fil3 {fill:#838281;fill-rule:nonzero}
    .fil0 {fill:white;fill-rule:nonzero}
    .fil1 {fill:#71B830;fill-rule:nonzero}
    .fil5 {fill:#F3DE88;fill-rule:nonzero}
    .fil2 {fill:url(#id0)}
   ]]>
  </style>
  <linearGradient id="id0" gradientUnits="userSpaceOnUse" x1="207.708" y1="134.956" x2="213.242" y2="71.6939">
   <stop offset="0" style="stop-color:#926834"/>
   <stop offset="0.509804" style="stop-color:#F5F1B6"/>
   <stop offset="1" style="stop-color:#926834"/>
  </linearGradient>
 </defs>
 <g id="图层_x0020_1">
  <metadata id="CorelCorpID_0Corel-Layer"/>
  <path class="fil0" d="M55.3742 98.6864c0,0.5527 -0.3058,0.8349 -0.8937,0.8349 -2.4813,0 -4.4333,-0.0706 -5.8562,-0.2117 0.0588,1.7286 0.1294,4.1275 0.1999,7.1967 0.0236,1.317 0.1294,3.5866 0.3175,6.8204 0.1529,2.928 0.2352,5.1976 0.2352,6.8321 0,0.4821 -0.3175,0.7526 -0.9642,0.8232 -0.7761,0.094 -2.7282,0.1411 -5.8561,0.1411 -2.5988,0 -4.2804,-0.0706 -5.0683,-0.2117 -0.7761,-0.1411 -1.1642,-0.6115 -1.1642,-1.4111l0 -18.9795c0,-0.6702 -0.4586,-0.9995 -1.3875,-0.9995 -0.1529,0 -0.4116,0.0118 -0.7644,0.0353 -0.3645,0.0235 -0.6232,0.0352 -0.7761,0.0352 -0.6468,0 -0.976,-0.1881 -0.9996,-0.5526 -0.2116,-1.9991 -0.3175,-4.9037 -0.3175,-8.7254 0,-0.8467 0.4351,-1.3641 1.3171,-1.5405 0.7761,-0.0705 1.564,-0.1293 2.3754,-0.1764 -0.1176,-1.8344 -0.1764,-3.269 -0.1764,-4.3039 0,-3.9511 0.7761,-6.8203 2.3048,-8.6195 3.0574,-3.5513 7.9963,-5.3387 14.8167,-5.3387 0.4586,0 0.7408,0.1411 0.8349,0.4116 0.1764,1.0348 0.4468,2.5635 0.7878,4.5861 0.0236,0.1881 0.1764,0.8231 0.4469,1.9285 0.2117,0.8467 0.3057,1.5052 0.3057,1.9638 0,0.5527 -0.8114,0.9055 -2.4459,1.0701 -1.8815,0.1999 -3.0339,0.5527 -3.4807,1.0348 -0.7526,0.8232 -1.1289,2.4459 -1.1289,4.8566 0,0.7526 0.0588,1.4699 0.1646,2.1402 0.6468,0 1.6463,-0.0235 2.9986,-0.0706 1.3641,-0.047 2.3754,-0.0705 3.0692,-0.0705 0.6938,0 1.0348,0.2469 1.0348,0.7526 0,1.0818 0.0118,2.7046 0.0353,4.88 0.0235,2.1638 0.0353,3.7983 0.0353,4.8684z"/>
  <path class="fil0" d="M85.4544 99.4507c0,0.8937 -0.4939,1.3406 -1.4817,1.3406 -0.4351,0 -1.0701,-0.0235 -1.905,-0.0823 -0.8349,-0.0588 -1.4699,-0.0941 -1.8815,-0.0941 -1.905,0 -3.1985,0.3057 -3.8923,0.9055 -0.6821,0.5879 -1.0348,1.7991 -1.0348,3.6101 0,0.9877 0.0235,2.4929 0.0588,4.5038 0.0352,1.999 0.047,3.5042 0.047,4.492 0,0.6585 0.047,1.6581 0.1411,2.9751 0.0941,1.3288 0.1294,2.3048 0.1294,2.9516 0,0.5527 -0.3763,0.8584 -1.1289,0.929 -1.1054,0.094 -2.7987,0.1411 -5.0683,0.1411 -2.1754,0 -3.9276,-0.0706 -5.2328,-0.2117 -0.7644,-0.0941 -1.1407,-0.4704 -1.1407,-1.1406 0,-1.8345 0.0118,-4.5862 0.0353,-8.2433 0.0235,-3.6689 0.0353,-6.4206 0.0353,-8.255 0,-5.3975 -0.4939,-9.8425 -1.4817,-13.335 -0.047,-0.1999 -0.0706,-0.3763 -0.0706,-0.5174 0,-0.341 0.1764,-0.5762 0.5174,-0.6821 1.2701,-0.1411 3.1163,-0.3998 5.5504,-0.7643 3.6219,-0.7056 5.5034,-1.0701 5.6092,-1.0701 0.4116,0 0.682,0.7291 0.7996,2.1755 0.1059,1.4464 0.3175,2.1754 0.6115,2.1754 -0.3175,0 0.6232,-0.6115 2.834,-1.8109 2.199,-1.2112 4.3274,-1.8109 6.3735,-1.8109 1.2818,0 1.9285,0.2704 1.9285,0.8231 0,0.6703 -0.0705,1.611 -0.2116,2.8222 -0.1411,1.3171 -0.2117,2.2578 -0.2352,2.834 0,0.6585 0.0117,1.5523 0.0353,2.6459 0.0352,1.364 0.0588,2.2577 0.0588,2.6928z"/>
  <path class="fil0" d="M163.454 102.202c0,2.3166 -0.7526,3.6454 -2.246,3.9629 -0.2469,0.047 -2.6223,0.294 -7.1261,0.7643 -2.7164,0.294 -6.7498,0.6468 -12.1238,1.0584 0.3175,1.4934 1.2935,2.634 2.928,3.4102 1.3288,0.6467 2.8458,0.9642 4.5391,0.9642 2.0461,0 4.104,-0.5409 6.1736,-1.6463 0.8702,-0.5527 1.7404,-1.1054 2.6106,-1.658 0.4821,0.2351 1.2935,1.3993 2.4342,3.516 1.1406,2.1166 1.7051,3.4572 1.7051,4.0334 0,0.1529 -0.1764,0.4233 -0.5174,0.7879 -2.7988,3.0104 -7.1497,4.5155 -13.0528,4.5155 -5.4681,0 -9.8778,-1.5992 -13.2292,-4.786 -3.4455,-3.2455 -5.1741,-7.573 -5.1741,-12.994 0,-5.2799 1.5405,-9.6073 4.6214,-12.9822 3.1632,-3.4925 7.3731,-5.2446 12.6059,-5.2446 4.4098,0 8.1492,1.611 11.2301,4.833 3.081,3.2103 4.6214,7.0321 4.6214,11.4653zm-12.065 -2.1049c0,-1.4229 -0.5056,-2.6694 -1.5169,-3.7512 -1.0113,-1.0819 -2.2108,-1.6228 -3.6101,-1.6228 -1.4464,0 -2.6459,0.6115 -3.5866,1.8345 -0.8702,1.1171 -1.3053,2.4459 -1.3053,3.9628 0,0.6115 0.3175,0.929 0.9643,0.929 1.6933,0 4.3392,-0.2704 7.9257,-0.7996 0.7526,-0.1059 1.1289,-0.294 1.1289,-0.5527z"/>
  <path class="fil1" d="M124.577 102.202c0,2.3166 -0.7526,3.6454 -2.246,3.9629 -0.2469,0.047 -2.6223,0.294 -7.1261,0.7643 -2.7164,0.294 -6.7498,0.6468 -12.1238,1.0584 0.3175,1.4934 1.2935,2.634 2.928,3.4102 1.3288,0.6467 2.8458,0.9642 4.5391,0.9642 2.0461,0 4.104,-0.5409 6.1736,-1.6463 0.8702,-0.5527 1.7404,-1.1054 2.6106,-1.658 0.4821,0.2351 1.2935,1.3993 2.4342,3.516 1.1406,2.1166 1.7051,3.4572 1.7051,4.0334 0,0.1529 -0.1764,0.4233 -0.5174,0.7879 -2.7988,3.0104 -7.1497,4.5155 -13.0528,4.5155 -5.4681,0 -9.8778,-1.5992 -13.2292,-4.786 -3.4455,-3.2455 -5.1741,-7.573 -5.1741,-12.994 0,-5.2799 1.5405,-9.6073 4.6214,-12.9822 3.1632,-3.4925 7.3731,-5.2446 12.6059,-5.2446 4.4098,0 8.1492,1.611 11.2301,4.833 3.081,3.2103 4.6214,7.0321 4.6214,11.4653zm-12.065 -2.1049c0,-1.4229 -0.5056,-2.6694 -1.5169,-3.7512 -1.0113,-1.0819 -2.2108,-1.6228 -3.6101,-1.6228 -1.4464,0 -2.6459,0.6115 -3.5866,1.8345 -0.8702,1.1171 -1.3053,2.4459 -1.3053,3.9628 0,0.6115 0.3175,0.929 0.9643,0.929 1.6933,0 4.3392,-0.2704 7.9257,-0.7996 0.7526,-0.1059 1.1289,-0.294 1.1289,-0.5527z"/>
  <ellipse class="fil2 str0" cx="210.475" cy="103.325" rx="31.4635" ry="31.155"/>
  <path class="fil3" d="M195.507 120.96l0 -0.5909c0.9966,-0.0529 1.7992,-0.194 2.4165,-0.4233 0.6086,-0.2382 1.1466,-0.5909 1.614,-1.076 0.5468,-0.5468 0.9172,-1.2524 1.1112,-2.0902 0.1852,-0.8467 0.2823,-2.152 0.2823,-3.9335l0 -19.0412c0,-1.7815 -0.0971,-3.0868 -0.2823,-3.9335 -0.194,-0.8378 -0.5644,-1.5434 -1.1112,-2.0902 -0.4674,-0.5027 -1.0054,-0.8643 -1.6316,-1.0848 -0.6174,-0.2293 -1.4199,-0.3616 -2.3989,-0.4145l0 -0.5909 16.9686 0c1.7286,0 2.8575,0.0177 3.3867,0.0529 1.9667,0.15 3.5895,0.6174 4.886,1.3935 1.12,0.6879 1.9843,1.5963 2.5929,2.7164 0.6085,1.1201 0.9172,2.3724 0.9172,3.7659 0,2.2578 -0.6967,4.1099 -2.0902,5.5563 -0.5027,0.5379 -1.0672,0.9789 -1.7022,1.3317 -0.6438,0.3528 -1.561,0.7496 -2.7693,1.1818 1.6581,0.2734 2.9369,0.5733 3.8541,0.8996 0.9084,0.3263 1.7375,0.7849 2.4783,1.367 1.1024,0.8996 1.9579,2.0108 2.5665,3.3514 0.6085,1.3317 0.9172,2.7781 0.9172,4.3215 0,1.5699 -0.3175,3.0075 -0.9437,4.3039 -0.6262,1.3053 -1.4993,2.346 -2.6194,3.1397 -1.0142,0.7056 -2.2313,1.1995 -3.6336,1.4729 -1.4023,0.2734 -3.3778,0.4145 -5.9267,0.4145l-18.8824 0zm11.0772 -34.4752l0 15.3546 2.0902 0c0.9878,0 2.0021,-0.0705 3.0516,-0.2028 0.9172,-0.1411 1.6492,-0.3087 2.2137,-0.4939 0.5556,-0.194 1.0759,-0.4498 1.5345,-0.7761 0.882,-0.6527 1.5611,-1.4993 2.0285,-2.5224 0.4763,-1.023 0.7144,-2.1607 0.7144,-3.3955 0,-1.3141 -0.247,-2.5576 -0.7408,-3.7394 -0.4851,-1.1818 -1.1378,-2.099 -1.9491,-2.7517 -0.7056,-0.5644 -1.5082,-0.9525 -2.4166,-1.1641 -0.8996,-0.2029 -2.2754,-0.3087 -4.1187,-0.3087l-2.4077 0zm0 16.1484l0 10.6539c0,1.2964 0.0882,2.3371 0.2734,3.1309 0.1764,0.7937 0.4763,1.464 0.8908,2.0196 0.8819,1.1554 2.3901,1.7286 4.5244,1.7286 2.7781,0 4.9653,-0.7584 6.5793,-2.2754 1.6139,-1.5169 2.4165,-3.5895 2.4165,-6.2089 0,-1.4993 -0.2469,-2.8927 -0.7496,-4.1716 -0.5027,-1.2876 -1.173,-2.2754 -2.0197,-2.9633 -1.5522,-1.2788 -3.9776,-1.9138 -7.2849,-1.9138l-4.6302 0z"/>
  <path class="fil4 str1" d="M195.507 120.96l0 -0.5909c0.9966,-0.0529 1.7992,-0.194 2.4165,-0.4233 0.6086,-0.2382 1.1466,-0.5909 1.614,-1.076 0.5468,-0.5468 0.9172,-1.2524 1.1112,-2.0902 0.1852,-0.8467 0.2823,-2.152 0.2823,-3.9335l0 -19.0412c0,-1.7815 -0.0971,-3.0868 -0.2823,-3.9335 -0.194,-0.8378 -0.5644,-1.5434 -1.1112,-2.0902 -0.4674,-0.5027 -1.0054,-0.8643 -1.6316,-1.0848 -0.6174,-0.2293 -1.4199,-0.3616 -2.3989,-0.4145l0 -0.5909 16.9686 0c1.7286,0 2.8575,0.0177 3.3867,0.0529 1.9667,0.15 3.5895,0.6174 4.886,1.3935 1.12,0.6879 1.9843,1.5963 2.5929,2.7164 0.6085,1.1201 0.9172,2.3724 0.9172,3.7659 0,2.2578 -0.6967,4.1099 -2.0902,5.5563 -0.5027,0.5379 -1.0672,0.9789 -1.7022,1.3317 -0.6438,0.3528 -1.561,0.7496 -2.7693,1.1818 1.6581,0.2734 2.9369,0.5733 3.8541,0.8996 0.9084,0.3263 1.7375,0.7849 2.4783,1.367 1.1024,0.8996 1.9579,2.0108 2.5665,3.3514 0.6085,1.3317 0.9172,2.7781 0.9172,4.3215 0,1.5699 -0.3175,3.0075 -0.9437,4.3039 -0.6262,1.3053 -1.4993,2.346 -2.6194,3.1397 -1.0142,0.7056 -2.2313,1.1995 -3.6336,1.4729 -1.4023,0.2734 -3.3778,0.4145 -5.9267,0.4145l-18.8824 0zm11.0772 -34.4752l0 15.3546 2.0902 0c0.9878,0 2.0021,-0.0705 3.0516,-0.2028 0.9172,-0.1411 1.6492,-0.3087 2.2137,-0.4939 0.5556,-0.194 1.0759,-0.4498 1.5345,-0.7761 0.882,-0.6527 1.5611,-1.4993 2.0285,-2.5224 0.4763,-1.023 0.7144,-2.1607 0.7144,-3.3955 0,-1.3141 -0.247,-2.5576 -0.7408,-3.7394 -0.4851,-1.1818 -1.1378,-2.099 -1.9491,-2.7517 -0.7056,-0.5644 -1.5082,-0.9525 -2.4166,-1.1641 -0.8996,-0.2029 -2.2754,-0.3087 -4.1187,-0.3087l-2.4077 0zm0 16.1484l0 10.6539c0,1.2964 0.0882,2.3371 0.2734,3.1309 0.1764,0.7937 0.4763,1.464 0.8908,2.0196 0.8819,1.1554 2.3901,1.7286 4.5244,1.7286 2.7781,0 4.9653,-0.7584 6.5793,-2.2754 1.6139,-1.5169 2.4165,-3.5895 2.4165,-6.2089 0,-1.4993 -0.2469,-2.8927 -0.7496,-4.1716 -0.5027,-1.2876 -1.173,-2.2754 -2.0197,-2.9633 -1.5522,-1.2788 -3.9776,-1.9138 -7.2849,-1.9138l-4.6302 0z"/>
  <path class="fil5" d="M195.107 120.96l0 -0.5909c0.9966,-0.0529 1.7992,-0.194 2.4165,-0.4233 0.6086,-0.2382 1.1466,-0.5909 1.614,-1.076 0.5468,-0.5468 0.9172,-1.2524 1.1112,-2.0902 0.1852,-0.8467 0.2823,-2.152 0.2823,-3.9335l0 -19.0412c0,-1.7815 -0.0971,-3.0868 -0.2823,-3.9335 -0.194,-0.8378 -0.5644,-1.5434 -1.1112,-2.0902 -0.4674,-0.5027 -1.0054,-0.8643 -1.6316,-1.0848 -0.6174,-0.2293 -1.4199,-0.3616 -2.3989,-0.4145l0 -0.5909 16.9686 0c1.7286,0 2.8575,0.0177 3.3867,0.0529 1.9667,0.15 3.5895,0.6174 4.886,1.3935 1.12,0.6879 1.9843,1.5963 2.5929,2.7164 0.6085,1.1201 0.9172,2.3724 0.9172,3.7659 0,2.2578 -0.6967,4.1099 -2.0902,5.5563 -0.5027,0.5379 -1.0672,0.9789 -1.7022,1.3317 -0.6438,0.3528 -1.561,0.7496 -2.7693,1.1818 1.6581,0.2734 2.9369,0.5733 3.8541,0.8996 0.9084,0.3263 1.7375,0.7849 2.4783,1.367 1.1024,0.8996 1.9579,2.0108 2.5665,3.3514 0.6085,1.3317 0.9172,2.7781 0.9172,4.3215 0,1.5699 -0.3175,3.0075 -0.9437,4.3039 -0.6262,1.3053 -1.4993,2.346 -2.6194,3.1397 -1.0142,0.7056 -2.2313,1.1995 -3.6336,1.4729 -1.4023,0.2734 -3.3778,0.4145 -5.9267,0.4145l-18.8824 0zm11.0772 -34.4752l0 15.3546 2.0902 0c0.9878,0 2.0021,-0.0705 3.0516,-0.2028 0.9172,-0.1411 1.6492,-0.3087 2.2137,-0.4939 0.5556,-0.194 1.0759,-0.4498 1.5345,-0.7761 0.882,-0.6527 1.5611,-1.4993 2.0285,-2.5224 0.4763,-1.023 0.7144,-2.1607 0.7144,-3.3955 0,-1.3141 -0.247,-2.5576 -0.7408,-3.7394 -0.4851,-1.1818 -1.1378,-2.099 -1.9491,-2.7517 -0.7056,-0.5644 -1.5082,-0.9525 -2.4166,-1.1641 -0.8996,-0.2029 -2.2754,-0.3087 -4.1187,-0.3087l-2.4077 0zm0 16.1484l0 10.6539c0,1.2964 0.0882,2.3371 0.2734,3.1309 0.1764,0.7937 0.4763,1.464 0.8908,2.0196 0.8819,1.1554 2.3901,1.7286 4.5244,1.7286 2.7781,0 4.9653,-0.7584 6.5793,-2.2754 1.6139,-1.5169 2.4165,-3.5895 2.4165,-6.2089 0,-1.4993 -0.2469,-2.8927 -0.7496,-4.1716 -0.5027,-1.2876 -1.173,-2.2754 -2.0197,-2.9633 -1.5522,-1.2788 -3.9776,-1.9138 -7.2849,-1.9138l-4.6302 0z"/>
 </g>
</svg>
